<svg width="85" height="20" viewBox="0 0 85 20" fill="none" xmlns="http://www.w3.org/2000/svg">
<rect width="85" height="20" rx="5" fill="white"/>
<g opacity="0.85">
<path d="M24.2597 4.66851C24.6993 4.65956 25.0105 5.09546 24.8595 5.50835L22.2 12.778C22.0159 13.281 21.5707 13.6427 21.0407 13.72L12.3855 14.9822C11.9388 15.0474 11.4868 14.9019 11.162 14.5883L6.00734 9.61154C5.6881 9.30327 5.78298 8.76968 6.18882 8.59022L14.4278 4.94967C14.5538 4.894 14.6896 4.8638 14.8273 4.86097L24.2597 4.66851ZM14.8359 5.27764C14.7532 5.27934 14.6718 5.29755 14.5962 5.33094L6.35728 8.97108C6.22197 9.03089 6.19062 9.20889 6.29705 9.31165L11.4513 14.2885C11.6833 14.5125 12.0062 14.6162 12.3253 14.5696L20.9805 13.3074C21.3591 13.2522 21.6771 12.9941 21.8085 12.6348L24.468 5.36512C24.5184 5.22751 24.4147 5.08223 24.2682 5.08517L14.8359 5.27764Z" fill="black" fill-opacity="0.85"/>
<path d="M8.33334 8.75C8.33334 10.1307 7.21406 11.25 5.83334 11.25C4.45263 11.25 3.33334 10.1307 3.33334 8.75C3.33334 7.36928 4.45263 6.25 5.83334 6.25C7.21406 6.25 8.33334 7.36928 8.33334 8.75Z" fill="#FF0000"/>
<path d="M14.1667 15C14.1667 16.3807 13.0474 17.5 11.6667 17.5C10.286 17.5 9.16668 16.3807 9.16668 15C9.16668 13.6193 10.286 12.5 11.6667 12.5C13.0474 12.5 14.1667 13.6193 14.1667 15Z" fill="#B660F9"/>
<path d="M24.1667 13.3333C24.1667 14.714 23.0474 15.8333 21.6667 15.8333C20.286 15.8333 19.1667 14.714 19.1667 13.3333C19.1667 11.9526 20.286 10.8333 21.6667 10.8333C23.0474 10.8333 24.1667 11.9526 24.1667 13.3333Z" fill="#609DF9"/>
<path d="M27.0833 5C27.0833 6.38071 25.9641 7.5 24.5833 7.5C23.2026 7.5 22.0833 6.38071 22.0833 5C22.0833 3.61928 23.2026 2.5 24.5833 2.5C25.9641 2.5 27.0833 3.61928 27.0833 5Z" fill="#63F960"/>
<path d="M17.0833 5C17.0833 6.38071 15.9641 7.5 14.5833 7.5C13.2026 7.5 12.0833 6.38071 12.0833 5C12.0833 3.61928 13.2026 2.5 14.5833 2.5C15.9641 2.5 17.0833 3.61928 17.0833 5Z" fill="#F9E960"/>
</g>
<path d="M32.9942 9.40292L33.3583 11.8179L34.6617 6.825H35.6967L36.9904 11.7796L37.3929 9.40292L37.8913 6.825H39.0604L37.5942 13.3417H36.4154L35.16 8.4925L33.895 13.3417H32.7163L31.25 6.825H32.4958L32.9942 9.40292Z" fill="black"/>
<path d="M42.4451 9.4125C42.2854 9.4125 42.1033 9.45083 41.8989 9.5275C41.6944 9.60417 41.4517 9.75431 41.1705 9.97792V13.3417H40.0685V6.25H41.1705V9.08667C41.4644 8.8375 41.7392 8.65861 41.9947 8.55C42.2503 8.44139 42.5122 8.38708 42.7805 8.38708C43.2469 8.38708 43.6015 8.53722 43.8443 8.8375C44.0871 9.13139 44.2085 9.54667 44.2085 10.0833V13.3417H43.1064V10.2175C43.1064 9.68083 42.886 9.4125 42.4451 9.4125Z" fill="black"/>
<path d="M49.345 13.3896C49.0191 13.3896 48.7572 13.3225 48.5591 13.1883C48.3675 13.0542 48.2269 12.8881 48.1375 12.69C47.8628 12.9456 47.5976 13.134 47.3421 13.2554C47.0865 13.3768 46.8118 13.4375 46.5179 13.4375C46.0898 13.4375 45.7736 13.3001 45.5691 13.0254C45.3711 12.7507 45.2721 12.4025 45.2721 11.9808C45.2721 11.6997 45.3232 11.4538 45.4254 11.2429C45.534 11.0257 45.7097 10.8564 45.9525 10.735C46.1953 10.6136 46.5275 10.5529 46.9491 10.5529C47.1153 10.5529 47.2878 10.5657 47.4666 10.5913C47.6455 10.6104 47.8244 10.636 48.0033 10.6679V10.1025C48.0033 9.83417 47.9298 9.65208 47.7829 9.55625C47.636 9.45403 47.4379 9.40292 47.1887 9.40292C46.9971 9.40292 46.7862 9.42847 46.5562 9.47958C46.3326 9.53069 46.0898 9.61056 45.8279 9.71917L45.5116 8.78C46.1569 8.51806 46.7415 8.38708 47.2654 8.38708C47.7382 8.38708 48.1023 8.46694 48.3579 8.62667C48.6198 8.78639 48.8019 8.99722 48.9041 9.25917C49.0064 9.52111 49.0575 9.80222 49.0575 10.1025V11.9713C49.0575 12.0671 49.083 12.1597 49.1341 12.2492C49.1916 12.3322 49.3003 12.3738 49.46 12.3738H49.5654V13.3896H49.345ZM46.3358 11.9617C46.3358 12.1342 46.3741 12.2715 46.4508 12.3738C46.5275 12.4696 46.6393 12.5175 46.7862 12.5175C46.9332 12.5175 47.0993 12.4792 47.2846 12.4025C47.4698 12.3258 47.7094 12.1469 48.0033 11.8658V11.4538C47.6711 11.3963 47.3453 11.3675 47.0258 11.3675C46.7766 11.3675 46.5978 11.4186 46.4891 11.5208C46.3869 11.6231 46.3358 11.77 46.3358 11.9617Z" fill="black"/>
<path d="M53.4451 13.1788C53.279 13.2554 53.0873 13.3161 52.8701 13.3608C52.6529 13.4119 52.4324 13.4375 52.2088 13.4375C51.8383 13.4375 51.5412 13.3608 51.3176 13.2075C51.094 13.0542 50.931 12.8401 50.8288 12.5654C50.733 12.2907 50.6851 11.9776 50.6851 11.6263V9.44125H49.8992V8.48292H50.6851V7.21792H51.7872V8.48292H53.3013V9.44125H51.7872V11.6263C51.7872 11.9201 51.8415 12.1246 51.9501 12.2396C52.0651 12.3482 52.228 12.4025 52.4388 12.4025C52.541 12.4025 52.6497 12.3929 52.7647 12.3738C52.886 12.3482 53.0202 12.3067 53.1672 12.2492L53.4451 13.1788Z" fill="black"/>
<path d="M54.4749 13.3417V6.825H56.4587C56.9442 6.825 57.3275 6.89528 57.6087 7.03583C57.8962 7.17639 58.1006 7.37444 58.222 7.63C58.3498 7.88556 58.4137 8.18583 58.4137 8.53083V8.79917C58.4137 9.30389 58.1964 9.69042 57.762 9.95875C58.0687 10.0801 58.3019 10.2558 58.4616 10.4858C58.6213 10.7158 58.7012 10.9906 58.7012 11.31V11.5783C58.7012 11.9297 58.6373 12.2396 58.5095 12.5079C58.3817 12.7699 58.1709 12.9743 57.877 13.1213C57.5831 13.2682 57.1902 13.3417 56.6982 13.3417H54.4749ZM56.4587 7.87917H55.6249V9.50833H56.4587C56.7142 9.50833 56.9059 9.45083 57.0337 9.33583C57.1678 9.21444 57.2349 9.05153 57.2349 8.84708V8.53083C57.2349 8.32639 57.1678 8.16667 57.0337 8.05167C56.9059 7.93667 56.7142 7.87917 56.4587 7.87917ZM56.6982 10.5625H55.6249V12.2875H56.6982C56.9666 12.2875 57.171 12.2236 57.3116 12.0958C57.4521 11.9681 57.5224 11.7956 57.5224 11.5783V11.2621C57.5224 11.0449 57.4521 10.8756 57.3116 10.7542C57.171 10.6264 56.9666 10.5625 56.6982 10.5625Z" fill="black"/>
<path d="M63.9141 10.62V11.195C63.9141 11.8722 63.7288 12.4153 63.3583 12.8242C62.9877 13.2331 62.4638 13.4375 61.7866 13.4375C61.1094 13.4375 60.5855 13.2331 60.215 12.8242C59.8444 12.4153 59.6591 11.8722 59.6591 11.195V10.62C59.6591 9.94278 59.8412 9.40292 60.2054 9.00042C60.5759 8.59153 61.103 8.38708 61.7866 8.38708C62.4702 8.38708 62.9941 8.59153 63.3583 9.00042C63.7288 9.40292 63.9141 9.94278 63.9141 10.62ZM62.7833 10.62C62.7833 10.2303 62.697 9.92681 62.5245 9.70958C62.352 9.48597 62.1061 9.37417 61.7866 9.37417C61.4672 9.37417 61.2212 9.48597 61.0487 9.70958C60.8762 9.92681 60.79 10.2303 60.79 10.62V11.195C60.79 11.5847 60.8762 11.8914 61.0487 12.115C61.2212 12.3386 61.4672 12.4504 61.7866 12.4504C62.1061 12.4504 62.352 12.3386 62.5245 12.115C62.697 11.8914 62.7833 11.5847 62.7833 11.195V10.62Z" fill="black"/>
<path d="M67.8907 9.48917C67.5904 9.48917 67.3029 9.53708 67.0282 9.63292C66.7598 9.72236 66.5011 9.86931 66.2519 10.0738V13.3417H65.1498V8.48292H66.1944V9.23042C66.5203 8.92375 66.811 8.70653 67.0665 8.57875C67.3221 8.45097 67.5968 8.38708 67.8907 8.38708V9.48917Z" fill="black"/>
<path d="M71.7022 13.3417V12.6804C71.4083 12.9743 71.1527 13.1756 70.9355 13.2842C70.7246 13.3864 70.5042 13.4375 70.2742 13.4375C69.7503 13.4375 69.3415 13.2394 69.0476 12.8433C68.7601 12.4472 68.6163 11.8914 68.6163 11.1758V10.6583C68.6163 9.96194 68.792 9.40931 69.1434 9.00042C69.4948 8.59153 70.0027 8.38708 70.6672 8.38708C70.8333 8.38708 70.9962 8.40306 71.1559 8.435C71.322 8.46694 71.4849 8.51167 71.6447 8.56917V6.25H72.7467V13.3417H71.7022ZM69.7472 11.1758C69.7472 11.6039 69.8174 11.9169 69.958 12.115C70.1049 12.3131 70.3094 12.4121 70.5713 12.4121C70.7183 12.4121 70.8748 12.3706 71.0409 12.2875C71.207 12.1981 71.4083 12.0319 71.6447 11.7892V9.56583C71.3316 9.43806 71.0441 9.37417 70.7822 9.37417C70.4116 9.37417 70.1465 9.48917 69.9867 9.71917C69.827 9.94917 69.7472 10.2622 69.7472 10.6583V11.1758Z" fill="black"/>
<path d="M77.9548 13.0638C77.6226 13.1979 77.3095 13.2938 77.0157 13.3513C76.7218 13.4088 76.4439 13.4375 76.1819 13.4375C75.46 13.4375 74.9137 13.2331 74.5432 12.8242C74.1726 12.4153 73.9873 11.8722 73.9873 11.195V10.62C73.9873 10.1664 74.0704 9.77347 74.2365 9.44125C74.4026 9.10903 74.639 8.85028 74.9457 8.665C75.2523 8.47972 75.6133 8.38708 76.0286 8.38708C76.3672 8.38708 76.6834 8.45736 76.9773 8.59792C77.2776 8.73208 77.5204 8.94611 77.7057 9.24C77.8973 9.5275 77.9932 9.89806 77.9932 10.3517C77.9932 10.4858 77.9836 10.6296 77.9644 10.7829C77.9452 10.9299 77.9133 11.0864 77.8686 11.2525H75.0511C75.0639 11.6486 75.1629 11.9457 75.3482 12.1438C75.5334 12.3418 75.8305 12.4408 76.2394 12.4408C76.4566 12.4408 76.6802 12.4153 76.9102 12.3642C77.1466 12.3131 77.3894 12.2364 77.6386 12.1342L77.9548 13.0638ZM76.0286 9.31667C75.7347 9.31667 75.5047 9.4125 75.3386 9.60417C75.1789 9.78944 75.0862 10.0578 75.0607 10.4092H76.9007C76.907 10.3772 76.9102 10.3485 76.9102 10.3229C76.9102 10.291 76.9102 10.2622 76.9102 10.2367C76.9102 9.93 76.824 9.7 76.6515 9.54667C76.479 9.39333 76.2714 9.31667 76.0286 9.31667Z" fill="black"/>
<path d="M82.0036 9.48917C81.7034 9.48917 81.4159 9.53708 81.1411 9.63292C80.8728 9.72236 80.6141 9.86931 80.3649 10.0738V13.3417H79.2628V8.48292H80.3074V9.23042C80.6332 8.92375 80.9239 8.70653 81.1795 8.57875C81.435 8.45097 81.7097 8.38708 82.0036 8.38708V9.48917Z" fill="black"/>
</svg>
